<svg xmlns="http://www.w3.org/2000/svg" class="logo-white" id="svg40" width="148" version="1.1" viewBox="0 0 1869.2842 303.08732"> <defs id="defs4"> <style id="style2"> .cls-3{fill:#9ad3d2}.cls-5{fill:#14162b} </style> </defs> <g id="Layer_2" data-name="Layer 2" transform="translate(-162.71577 -73.822698)"> <g id="SVG_Logo" data-name="SVG Logo"> <g id="Layer_2-2" data-name="Layer 2" transform="matrix(.61264 0 0 .61264 162.71577 73.824731)"> <g id="Layer_1-2" data-name="Layer 1-2"> <path id="path859" d="M500.69 3.19c-22.38 18.66-44.91 37.15-67.13 56-42.14 35.62-84 71.79-126 107.46-41.79 35.21-83.85 70-125.47 105.25-4.47 3.78-9.18 9.13-10.44 14.52-7.65 32.88-14.11 66.15-21.43 99.17-2.07 7.08-4.78 23.13-7.78 29.86V258.83c0-11.45 2.62-20.56 11.45-26Q296.26 132.22 438.36 31.11c12.42-9.38 21.64-18.22 33.75-25.84 10.05-6.27 25.02-6.93 28.58-2.08Z" style="fill:#edf3fb"></path> <path id="path861" d="M500.69 3.19s9.05 8.74-.5 38.37c-11.94 39-102.88 325.62-114.85 364.64q-7.71 25.26-28.89 9.7c-43.29-31.9-88.55-65.12-131.77-97.14a102.07 102.07 0 0 1 13.9-19.45c17.34-18.61 35.95-36.06 53.43-54.53 19.75-20.85 38.41-42.43 58.17-63.28 17.4-18.36 35.62-36 53.29-54.06 37.74-39.87 26.3-27.89 37.74-39.87 15.18-16.22 29.62-33.1 44.66-49.46 9.39-10.37-14.15-10.57 14.82-34.92z" style="fill:#62a8c4"></path> <path id="path863" d="M480.26 1.69c-9 2.88 0 0-42 29.5q-142 100.92-284.37 201.59c-8.83 5.47-11.2 13.9-11.45 26C98 241.77 53.43 225 9.26 207.32 4.79 205.54 0 200.09 0 193.79c0-6.14 4.91-11.26 10.38-14.09 37.87-15.2 76.15-29.34 114.29-43.84L413.48 25.49c15.89-6.06 31.75-12.22 47.7-18.08 3.55-.98 15.63-5.36 19.08-5.72z" class="cls-3"></path> <path id="path865" d="M486.06 38C471 54.4 456.58 71.2 441.4 87.42l-37.73 39.87c-17.7 18.08-35.9 35.62-53.3 54.06-19.75 20.85-38.55 42.58-58.31 63.43-17.48 18.47-36.08 35.92-53.43 54.53A100.55 100.55 0 0 0 225 318.8c-4.58 7.75-7.83 16.51-12 24.52-13.46 26.27-26.58 52.69-39.87 79.05-6 11.92-11.13 15.15-21.4 12.25-9.7-2.74-9.54-11.13-9.37-19.19 7.78-29.86 0 0 7.62-29.92 7.31-32.88 13.7-66.23 21.42-99.16 1.26-5.48 6-10.74 10.44-14.52 41.79-35.21 83.85-70 125.5-105.2 42.2-35.62 84-71.73 126.18-107.46 22.22-18.83 44.75-37.32 67.13-56 8.77 9.32-5.29 24.45-14.59 34.83z" style="fill:#d9e4f6"></path> <path id="path867" d="m474 3.27-2.11 2.05z" class="cls-3"></path> </g> </g> <g id="Logo_text" data-name="Logo text"> <path id="path13" d="M530.53 126.18h117v35.5H574v43.73h68.72v35.22H574v77h-43.47z" class="cls-5" style="fill:#feffff;fill-opacity:1"></path> <path id="path15" d="M678.78 116H722v201.59h-43.22z" class="cls-5" style="fill:#feffff;fill-opacity:1"></path> <path id="path17" d="M801.47 140.09c0 11.93-9.09 21.59-23.29 21.59-13.63 0-22.72-9.66-22.44-21.59-.28-12.49 8.81-21.86 22.72-21.86 13.91 0 22.72 9.37 23.01 21.86zm-44.59 177.5V178.72h43.17v138.87z" class="cls-5" style="fill:#feffff;fill-opacity:1"></path> <path id="path19" d="M967.32 178.72c-.57 8.8-1.14 20.45-1.14 41.18v77.53c0 26.69-5.4 48.56-21 62.48-15.34 13.06-36.07 17-56.52 17-18.18 0-37.49-3.69-50-10.79l8.52-32.66c8.8 5.11 24.14 10.5 40.32 10.5 20.45 0 36.07-11.07 36.07-36.63v-9.09H923c-8.23 11.64-21.58 18.18-37.48 18.18-34.37 0-58.79-27.84-58.79-67.88 0-44.59 29-73 63-73 19 0 31 8.24 38.05 19.6h.57l1.42-16.47zM923 235.23a34 34 0 0 0-.85-7.95c-3.12-11.36-11.36-19-23.29-19-15.62 0-28.4 14.2-28.4 39.48 0 20.73 10.23 36.92 28.4 36.92 11.08 0 19.88-7.38 22.72-17.61 1.14-3.12 1.42-7.67 1.42-11.36z" class="cls-5" style="fill:#feffff;fill-opacity:1"></path> <path id="path21" d="M1000.83 116H1044v79.23h.56a52 52 0 0 1 17-14.2 48.48 48.48 0 0 1 22.44-5.4c27.55 0 48.56 19 48.56 60.78v81.22h-43.16V241.2c0-18.18-6.25-30.67-22.44-30.67-11.36 0-18.46 7.38-21.58 15.05a27.35 27.35 0 0 0-1.42 9.65v82.36h-43.17z" class="cls-5" style="fill:#feffff;fill-opacity:1"></path> <path id="path23" d="M1215.53 139v39.76h31v31.81h-31v50.26c0 16.76 4 24.43 17 24.43a70.19 70.19 0 0 0 12.78-1.14l.29 32.66c-5.68 2.27-15.91 3.69-28.12 3.69-13.92 0-25.56-4.83-32.38-11.93-8-8.23-11.92-21.58-11.92-41.17v-56.8h-18.46v-31.85h18.46v-30.11z" class="cls-5" style="fill:#feffff;fill-opacity:1"></path> <path id="path25" d="M1271.19 279.82c8 4.83 24.43 10.51 37.21 10.51 13.06 0 18.46-4.54 18.46-11.64 0-7.1-4.26-10.51-20.45-15.91-28.69-9.65-39.76-25.27-39.48-41.75 0-25.84 22.15-45.44 56.52-45.44 16.19 0 30.67 3.7 39.19 8l-7.64 29.78c-6.25-3.41-18.17-8-30.1-8-10.51 0-16.47 4.26-16.47 11.36 0 6.54 5.39 9.94 22.43 15.91 26.41 9.09 37.49 22.43 37.77 42.88 0 25.84-20.44 44.87-60.2 44.87-18.18 0-34.37-4-44.87-9.65z" class="cls-5" style="fill:#feffff;fill-opacity:1"></path> <path id="path27" d="M1439.32 140.09c0 11.93-9.09 21.59-23.29 21.59-13.63 0-22.72-9.66-22.44-21.59-.28-12.49 8.81-21.86 22.72-21.86 13.91 0 22.69 9.37 23.01 21.86zm-44.59 177.5V178.72h43.17v138.87z" class="cls-5" style="fill:#feffff;fill-opacity:1"></path> <path id="path29" d="M1472.54 223c0-17.32-.57-32.09-1.13-44.3h36.35l2 18.74h.85c6-8.8 18.17-21.87 42-21.87 17.89 0 32.09 9.09 38.06 23.58h.56a62.22 62.22 0 0 1 17.89-16.76c7.67-4.54 16.19-6.82 26.42-6.82 26.69 0 46.86 18.75 46.86 60.21v81.79h-42v-75.52c0-20.16-6.53-31.81-20.44-31.81-9.94 0-17 6.82-19.88 15a36 36 0 0 0-1.71 11.08v81.22h-42v-77.76c0-17.61-6.25-29.54-19.88-29.54-11.07 0-17.61 8.52-20.16 15.62a28.65 28.65 0 0 0-1.71 10.79v80.94h-42z" class="cls-5" style="fill:#feffff;fill-opacity:1"></path> <path id="path31" d="M1713.65 294.59c0-15.34 10.51-26.41 25.56-26.41 15.05 0 25.28 10.79 25.28 26.41 0 15.05-10.22 26.13-25.56 26.13-14.77 0-25.28-11.08-25.28-26.13z" class="cls-5" style="fill:#feffff;fill-opacity:1"></path> <path id="path33" d="M1838.9 139v39.76h30.95v31.81h-30.95v50.26c0 16.76 4 24.43 17 24.43a70.37 70.37 0 0 0 12.78-1.14l.28 32.66c-5.68 2.27-15.9 3.69-28.12 3.69-13.91 0-25.56-4.83-32.37-11.93-8-8.23-11.93-21.58-11.93-41.17v-56.8h-18.46v-31.85h18.46v-30.11z" class="cls-5" style="fill:#feffff;fill-opacity:1"></path> <path id="path35" d="M2032 246.59c0 50.84-36.07 74.13-73.27 74.13-40.61 0-71.85-26.7-71.85-71.57 0-44.87 29.53-73.56 74.12-73.56 42.61 0 71 29.26 71 71zM1931.48 248c0 23.86 9.94 41.75 28.4 41.75 16.75 0 27.54-16.75 27.54-41.75 0-20.73-8-41.74-27.54-41.74-20.74.01-28.4 21.31-28.4 41.74z" class="cls-5" style="fill:#feffff;fill-opacity:1"></path> </g> </g> </g> </svg>